<?xml version="1.0" encoding="utf-8" standalone="no"?>
<!DOCTYPE svg PUBLIC "-//W3C//DTD SVG 1.1//EN"
  "http://www.w3.org/Graphics/SVG/1.1/DTD/svg11.dtd">
<svg height="313.283063pt" version="1.1" viewBox="0 0 411.109687 313.283063" width="411.109687pt" xmlns="http://www.w3.org/2000/svg" xmlns:xlink="http://www.w3.org/1999/xlink">
 <g id="figure_1">
  <g id="axes_1">
   <svg>
     <g id="patch_2">
      <!--Boundary of plot-->
      <path d="M 46.789688 277.570375
              L 403.909688 277.570375
              L 403.909688 11.458375
              L 46.789688 11.458375
              z"
            style="fill:#ffffff;stroke:#7f7f7f;stroke-linejoin:miter;"/>
     </g>
    </svg>
   <!-- left point -->
   <svg>
     <g id="PathCollection_1">
      <defs>
       <path d="M 0 1.772454
                C 0.47006 1.772454 0.920931 1.585697 1.253314 1.253314
                C 1.585697 0.920931 1.772454 0.47006 1.772454 0
                C 1.772454 -0.47006 1.585697 -0.920931 1.253314 -1.253314
                C 0.920931 -1.585697 0.47006 -1.772454 0 -1.772454
                C -0.47006 -1.772454 -0.920931 -1.585697 -1.253314 -1.253314
                C -1.585697 -0.920931 -1.772454 -0.47006 -1.772454 0
                C -1.772454 0.47006 -1.585697 0.920931 -1.253314 1.253314
                C -0.920931 1.585697 -0.47006 1.772454 0 1.772454
                z
                "
              id="m4f8d9977ec"
              style="stroke:#000000;stroke-width:0.886227;"/>
      </defs>
      <g clip-path="url(#p4afdc8efe2)">
       <use style="stroke:#000000;stroke-width:0.886227;"
            x="63.022415"
            xlink:href="#m4f8d9977ec"
            y="144.514375"/>
      </g>
     </g>
    </svg>
   <!-- right text -->
   <svg>
     <g id="text_1">
      <g clip-path="url(#p4afdc8efe2)">
       <text
          style="font-family:DejaVu Sans;font-size:11px;font-stretch:normal;font-style:normal;font-weight:normal;text-anchor:middle;"   transform="rotate(-0, 387.67696, 147.549688)"
          x="387.67696"
          y="147.549688">hi</text>
      </g>
     </g>
   </svg>
  </g>
 </g>
</svg>
