<?xml version='1.0' encoding='ASCII' standalone='yes'?>
<svg xmlns="http://www.w3.org/2000/svg" xmlns:xlink="http://www.w3.org/1999/xlink" version="1.1" width="576pt" height="432pt">
  <g>
    <g transform="translate(0, 0) scale(1.0001526465613053 1.0000637586945416) "><metadata>
  <rdf:RDF xmlns:dc="http://purl.org/dc/elements/1.1/" xmlns:cc="http://creativecommons.org/ns#" xmlns:rdf="http://www.w3.org/1999/02/22-rdf-syntax-ns#">
   <cc:Work>
    <dc:type rdf:resource="http://purl.org/dc/dcmitype/StillImage"/>
    <dc:date>2022-01-28T18:12:07.687148</dc:date>
    <dc:format>image/svg+xml</dc:format>
    <dc:creator>
     <cc:Agent>
      <dc:title>Matplotlib v3.5.1, https://matplotlib.org/</dc:title>
     </cc:Agent>
    </dc:creator>
   </cc:Work>
  </rdf:RDF>
 </metadata>
 <defs>
  <style type="text/css">*{stroke-linejoin: round; stroke-linecap: butt}</style>
 </defs>
 <g id="figure_1">
  <g id="patch_1">
   <path d="M 0 431.972458  L 575.912089 431.972458  L 575.912089 0  L 0 0  z " style="fill: #ffffff; stroke: #ffffff; stroke-linejoin: miter"/>
  </g>
  <g id="axes_1">
   <g id="patch_2">
    <path d="M 43.992938 396.259771  L 563.862938 396.259771  L 563.862938 26.105371  L 43.992938 26.105371  z " style="fill: #ebebeb"/>
   </g>
   <g id="matplotlib.axis_1">
    <g id="xtick_1">
     <g id="line2d_1">
      <path d="M 46.141161 396.259771  L 46.141161 26.105371  " clip-path="url(#pab4bed58cf)" style="fill: none; stroke: #ffffff"/>
     </g>
     <g id="line2d_2">
      <path d="M 46.141161 396.259771  " style="fill: none; stroke: #333333; stroke-width: 1.5"/>
      <defs>
       <path id="m9054a162ce" d="M 0 0  L 0 2.75  " style="stroke: #000000"/>
      </defs>
      <g>
       <use xlink:href="#m9054a162ce" x="46.141161" y="396.259771" style="fill: #333333; stroke: #000000"/>
      </g>
     </g>
     <g id="text_1">
      <text style="fill: #4d4d4d; font: 8.8px 'Dejavu Sans'; text-anchor: middle" x="46.141161" y="407.896396" transform="rotate(-0, 46.141161, 407.896396)">2.5</text>
     </g>
    </g>
    <g id="xtick_2">
     <g id="line2d_3">
      <path d="M 132.070086 396.259771  L 132.070086 26.105371  " clip-path="url(#pab4bed58cf)" style="fill: none; stroke: #ffffff"/>
     </g>
     <g id="line2d_4">
      <path d="M 132.070086 396.259771  " style="fill: none; stroke: #333333; stroke-width: 1.5"/>
      <g>
       <use xlink:href="#m9054a162ce" x="132.070086" y="396.259771" style="fill: #333333; stroke: #000000"/>
      </g>
     </g>
     <g id="text_2">
      <text style="fill: #4d4d4d; font: 8.8px 'Dejavu Sans'; text-anchor: middle" x="132.070086" y="407.896396" transform="rotate(-0, 132.070086, 407.896396)">3</text>
     </g>
    </g>
    <g id="xtick_3">
     <g id="line2d_5">
      <path d="M 217.999012 396.259771  L 217.999012 26.105371  " clip-path="url(#pab4bed58cf)" style="fill: none; stroke: #ffffff"/>
     </g>
     <g id="line2d_6">
      <path d="M 217.999012 396.259771  " style="fill: none; stroke: #333333; stroke-width: 1.5"/>
      <g>
       <use xlink:href="#m9054a162ce" x="217.999012" y="396.259771" style="fill: #333333; stroke: #000000"/>
      </g>
     </g>
     <g id="text_3">
      <text style="fill: #4d4d4d; font: 8.8px 'Dejavu Sans'; text-anchor: middle" x="217.999012" y="407.896396" transform="rotate(-0, 217.999012, 407.896396)">3.5</text>
     </g>
    </g>
    <g id="xtick_4">
     <g id="line2d_7">
      <path d="M 303.927937 396.259771  L 303.927937 26.105371  " clip-path="url(#pab4bed58cf)" style="fill: none; stroke: #ffffff"/>
     </g>
     <g id="line2d_8">
      <path d="M 303.927937 396.259771  " style="fill: none; stroke: #333333; stroke-width: 1.5"/>
      <g>
       <use xlink:href="#m9054a162ce" x="303.927937" y="396.259771" style="fill: #333333; stroke: #000000"/>
      </g>
     </g>
     <g id="text_4">
      <text style="fill: #4d4d4d; font: 8.8px 'Dejavu Sans'; text-anchor: middle" x="303.927937" y="407.896396" transform="rotate(-0, 303.927937, 407.896396)">4</text>
     </g>
    </g>
    <g id="xtick_5">
     <g id="line2d_9">
      <path d="M 389.856863 396.259771  L 389.856863 26.105371  " clip-path="url(#pab4bed58cf)" style="fill: none; stroke: #ffffff"/>
     </g>
     <g id="line2d_10">
      <path d="M 389.856863 396.259771  " style="fill: none; stroke: #333333; stroke-width: 1.5"/>
      <g>
       <use xlink:href="#m9054a162ce" x="389.856863" y="396.259771" style="fill: #333333; stroke: #000000"/>
      </g>
     </g>
     <g id="text_5">
      <text style="fill: #4d4d4d; font: 8.8px 'Dejavu Sans'; text-anchor: middle" x="389.856863" y="407.896396" transform="rotate(-0, 389.856863, 407.896396)">4.5</text>
     </g>
    </g>
    <g id="xtick_6">
     <g id="line2d_11">
      <path d="M 475.785789 396.259771  L 475.785789 26.105371  " clip-path="url(#pab4bed58cf)" style="fill: none; stroke: #ffffff"/>
     </g>
     <g id="line2d_12">
      <path d="M 475.785789 396.259771  " style="fill: none; stroke: #333333; stroke-width: 1.5"/>
      <g>
       <use xlink:href="#m9054a162ce" x="475.785789" y="396.259771" style="fill: #333333; stroke: #000000"/>
      </g>
     </g>
     <g id="text_6">
      <text style="fill: #4d4d4d; font: 8.8px 'Dejavu Sans'; text-anchor: middle" x="475.785789" y="407.896396" transform="rotate(-0, 475.785789, 407.896396)">5</text>
     </g>
    </g>
    <g id="xtick_7">
     <g id="line2d_13">
      <path d="M 561.714714 396.259771  L 561.714714 26.105371  " clip-path="url(#pab4bed58cf)" style="fill: none; stroke: #ffffff"/>
     </g>
     <g id="line2d_14">
      <path d="M 561.714714 396.259771  " style="fill: none; stroke: #333333; stroke-width: 1.5"/>
      <g>
       <use xlink:href="#m9054a162ce" x="561.714714" y="396.259771" style="fill: #333333; stroke: #000000"/>
      </g>
     </g>
     <g id="text_7">
      <text style="fill: #4d4d4d; font: 8.8px 'Dejavu Sans'; text-anchor: middle" x="561.714714" y="407.896396" transform="rotate(-0, 561.714714, 407.896396)">5.5</text>
     </g>
    </g>
    <g id="xtick_8">
     <g id="line2d_15">
      <path d="M 89.105623 396.259771  L 89.105623 26.105371  " clip-path="url(#pab4bed58cf)" style="fill: none; stroke: #ffffff; stroke-width: 0.5"/>
     </g>
    </g>
    <g id="xtick_9">
     <g id="line2d_16">
      <path d="M 175.034549 396.259771  L 175.034549 26.105371  " clip-path="url(#pab4bed58cf)" style="fill: none; stroke: #ffffff; stroke-width: 0.5"/>
     </g>
    </g>
    <g id="xtick_10">
     <g id="line2d_17">
      <path d="M 260.963475 396.259771  L 260.963475 26.105371  " clip-path="url(#pab4bed58cf)" style="fill: none; stroke: #ffffff; stroke-width: 0.5"/>
     </g>
    </g>
    <g id="xtick_11">
     <g id="line2d_18">
      <path d="M 346.8924 396.259771  L 346.8924 26.105371  " clip-path="url(#pab4bed58cf)" style="fill: none; stroke: #ffffff; stroke-width: 0.5"/>
     </g>
    </g>
    <g id="xtick_12">
     <g id="line2d_19">
      <path d="M 432.821326 396.259771  L 432.821326 26.105371  " clip-path="url(#pab4bed58cf)" style="fill: none; stroke: #ffffff; stroke-width: 0.5"/>
     </g>
    </g>
    <g id="xtick_13">
     <g id="line2d_20">
      <path d="M 518.750252 396.259771  L 518.750252 26.105371  " clip-path="url(#pab4bed58cf)" style="fill: none; stroke: #ffffff; stroke-width: 0.5"/>
     </g>
    </g>
    <g id="text_8">
     <text style="font: 11px 'Dejavu Sans'; text-anchor: middle" x="295.542937" y="422.484802" transform="rotate(-0, 295.542937, 422.484802)">gear</text>
    </g>
   </g>
   <g id="matplotlib.axis_2">
    <g id="ytick_1">
     <g id="line2d_21">
      <path d="M 43.992938 355.176737  L 563.862938 355.176737  " clip-path="url(#pab4bed58cf)" style="fill: none; stroke: #ffffff"/>
     </g>
     <g id="line2d_22">
      <path d="M 43.992938 355.176737  " style="fill: none; stroke: #333333; stroke-width: 1.5"/>
      <defs>
       <path id="m818ed4e100" d="M 0 0  L -2.75 0  " style="stroke: #000000"/>
      </defs>
      <g>
       <use xlink:href="#m818ed4e100" x="43.992938" y="355.176737" style="fill: #333333; stroke: #000000"/>
      </g>
     </g>
     <g id="text_9">
      <text style="fill: #4d4d4d; font: 8.8px 'Dejavu Sans'; text-anchor: end" x="39.042938" y="357.604987" transform="rotate(-0, 39.042938, 357.604987)">100</text>
     </g>
    </g>
    <g id="ytick_2">
     <g id="line2d_23">
      <path d="M 43.992938 271.239595  L 563.862938 271.239595  " clip-path="url(#pab4bed58cf)" style="fill: none; stroke: #ffffff"/>
     </g>
     <g id="line2d_24">
      <path d="M 43.992938 271.239595  " style="fill: none; stroke: #333333; stroke-width: 1.5"/>
      <g>
       <use xlink:href="#m818ed4e100" x="43.992938" y="271.239595" style="fill: #333333; stroke: #000000"/>
      </g>
     </g>
     <g id="text_10">
      <text style="fill: #4d4d4d; font: 8.8px 'Dejavu Sans'; text-anchor: end" x="39.042938" y="273.667845" transform="rotate(-0, 39.042938, 273.667845)">200</text>
     </g>
    </g>
    <g id="ytick_3">
     <g id="line2d_25">
      <path d="M 43.992938 187.302454  L 563.862938 187.302454  " clip-path="url(#pab4bed58cf)" style="fill: none; stroke: #ffffff"/>
     </g>
     <g id="line2d_26">
      <path d="M 43.992938 187.302454  " style="fill: none; stroke: #333333; stroke-width: 1.5"/>
      <g>
       <use xlink:href="#m818ed4e100" x="43.992938" y="187.302454" style="fill: #333333; stroke: #000000"/>
      </g>
     </g>
     <g id="text_11">
      <text style="fill: #4d4d4d; font: 8.8px 'Dejavu Sans'; text-anchor: end" x="39.042938" y="189.730704" transform="rotate(-0, 39.042938, 189.730704)">300</text>
     </g>
    </g>
    <g id="ytick_4">
     <g id="line2d_27">
      <path d="M 43.992938 103.365313  L 563.862938 103.365313  " clip-path="url(#pab4bed58cf)" style="fill: none; stroke: #ffffff"/>
     </g>
     <g id="line2d_28">
      <path d="M 43.992938 103.365313  " style="fill: none; stroke: #333333; stroke-width: 1.5"/>
      <g>
       <use xlink:href="#m818ed4e100" x="43.992938" y="103.365313" style="fill: #333333; stroke: #000000"/>
      </g>
     </g>
     <g id="text_12">
      <text style="fill: #4d4d4d; font: 8.8px 'Dejavu Sans'; text-anchor: end" x="39.042938" y="105.793563" transform="rotate(-0, 39.042938, 105.793563)">400</text>
     </g>
    </g>
    <g id="ytick_5">
     <g id="line2d_29">
      <path d="M 43.992938 313.208166  L 563.862938 313.208166  " clip-path="url(#pab4bed58cf)" style="fill: none; stroke: #ffffff; stroke-width: 0.5"/>
     </g>
    </g>
    <g id="ytick_6">
     <g id="line2d_30">
      <path d="M 43.992938 229.271025  L 563.862938 229.271025  " clip-path="url(#pab4bed58cf)" style="fill: none; stroke: #ffffff; stroke-width: 0.5"/>
     </g>
    </g>
    <g id="ytick_7">
     <g id="line2d_31">
      <path d="M 43.992938 145.333883  L 563.862938 145.333883  " clip-path="url(#pab4bed58cf)" style="fill: none; stroke: #ffffff; stroke-width: 0.5"/>
     </g>
    </g>
    <g id="ytick_8">
     <g id="line2d_32">
      <path d="M 43.992938 61.396742  L 563.862938 61.396742  " clip-path="url(#pab4bed58cf)" style="fill: none; stroke: #ffffff; stroke-width: 0.5"/>
     </g>
    </g>
    <g id="text_13">
     <text style="font: 11px 'Dejavu Sans'; text-anchor: middle" x="15.558281" y="208.778971" transform="rotate(-90, 15.558281, 208.778971)">disp</text>
    </g>
   </g>
   <g id="LineCollection_1">
    <path d="M 132.070086 120.152741  L 132.070086 42.930571  " clip-path="url(#pab4bed58cf)" style="fill: none; stroke: #333333; stroke-width: 0.886227"/>
    <path d="M 132.070086 207.615242  L 132.070086 338.305371  " clip-path="url(#pab4bed58cf)" style="fill: none; stroke: #333333; stroke-width: 0.886227"/>
   </g>
   <g id="PolyCollection_1">
    <defs>
     <path id="m925408c7e0" d="M 67.623392 -311.819717  L 67.623392 -311.819717  L 196.51678 -311.819717  L 196.51678 -224.357216  L 67.623392 -224.357216  z " style="stroke: #333333; stroke-width: 0.886227"/>
    </defs>
    <g clip-path="url(#pab4bed58cf)">
     <use xlink:href="#m925408c7e0" x="0" y="431.972458" style="fill: #ffffff; stroke: #333333; stroke-width: 0.886227"/>
    </g>
   </g>
   <g id="LineCollection_2">
    <path d="M 67.623392 172.193769  L 196.51678 172.193769  " clip-path="url(#pab4bed58cf)" style="fill: none; stroke: #333333; stroke-width: 1.772454"/>
   </g>
   <g id="LineCollection_3">
    <path d="M 303.927937 304.814452  L 303.927937 298.435229  " clip-path="url(#pab4bed58cf)" style="fill: none; stroke: #333333; stroke-width: 0.886227"/>
    <path d="M 303.927937 372.866489  L 303.927937 379.434571  " clip-path="url(#pab4bed58cf)" style="fill: none; stroke: #333333; stroke-width: 0.886227"/>
   </g>
   <g id="PolyCollection_2">
    <defs>
     <path id="m6145765c25" d="M 239.481243 -127.158006  L 239.481243 -127.158006  L 368.374632 -127.158006  L 368.374632 -59.105969  L 239.481243 -59.105969  z " style="stroke: #333333; stroke-width: 0.886227"/>
    </defs>
    <g clip-path="url(#pab4bed58cf)">
     <use xlink:href="#m6145765c25" x="0" y="431.972458" style="fill: #ffffff; stroke: #333333; stroke-width: 0.886227"/>
    </g>
   </g>
   <g id="LineCollection_4">
    <path d="M 239.481243 329.24016  L 368.374632 329.24016  " clip-path="url(#pab4bed58cf)" style="fill: none; stroke: #333333; stroke-width: 1.772454"/>
   </g>
   <g id="LineCollection_5">
    <path d="M 475.785789 186.463083  L 475.785789 144.494512  " clip-path="url(#pab4bed58cf)" style="fill: none; stroke: #333333; stroke-width: 0.886227"/>
    <path d="M 475.785789 338.137497  L 475.785789 359.289657  " clip-path="url(#pab4bed58cf)" style="fill: none; stroke: #333333; stroke-width: 0.886227"/>
   </g>
   <g id="PolyCollection_3">
    <defs>
     <path id="m2c5fa5156c" d="M 411.339095 -245.509376  L 411.339095 -245.509376  L 540.232483 -245.509376  L 540.232483 -93.834961  L 411.339095 -93.834961  z " style="stroke: #333333; stroke-width: 0.886227"/>
    </defs>
    <g clip-path="url(#pab4bed58cf)">
     <use xlink:href="#m2c5fa5156c" x="0" y="431.972458" style="fill: #ffffff; stroke: #333333; stroke-width: 0.886227"/>
    </g>
   </g>
   <g id="LineCollection_6">
    <path d="M 411.339095 317.405023  L 540.232483 317.405023  " clip-path="url(#pab4bed58cf)" style="fill: none; stroke: #333333; stroke-width: 1.772454"/>
   </g>
  </g>
  <g id="text_14">
   <text style="font: 13.2px 'Dejavu Sans'; text-anchor: middle" x="295.542937" y="17.229937" transform="rotate(-0, 295.542937, 17.229937)">Plot 1</text>
  </g>
 </g>
 <defs>
  <clipPath id="pab4bed58cf">
   <rect x="43.992938" y="26.105371" width="519.87" height="370.1544"/>
  </clipPath>
 </defs>
</g>
  </g>
  <g transform="translate(201.6, 30.240000000000002) scale(1 1) ">
    <g transform="translate(0, 0) scale(0.9999109033513781 0.9883605706306965) "><metadata>
  <rdf:RDF xmlns:dc="http://purl.org/dc/elements/1.1/" xmlns:cc="http://creativecommons.org/ns#" xmlns:rdf="http://www.w3.org/1999/02/22-rdf-syntax-ns#">
   <cc:Work>
    <dc:type rdf:resource="http://purl.org/dc/dcmitype/StillImage"/>
    <dc:date>2022-01-28T18:12:08.220764</dc:date>
    <dc:format>image/svg+xml</dc:format>
    <dc:creator>
     <cc:Agent>
      <dc:title>Matplotlib v3.5.1, https://matplotlib.org/</dc:title>
     </cc:Agent>
    </dc:creator>
   </cc:Work>
  </rdf:RDF>
 </metadata>
 <defs>
  <style type="text/css">*{stroke-linejoin: round; stroke-linecap: butt}</style>
 </defs>
 <g id="figure_1">
  <g id="patch_1">
   <path d="M 0 144.238858  L 190.096937 144.238858  L 190.096937 0  L 0 0  z " style="fill: #ffffff; stroke: #ffffff; stroke-linejoin: miter"/>
  </g>
  <g id="axes_1">
   <g id="patch_2">
    <path d="M 32.794938 108.526171  L 182.896938 108.526171  L 182.896938 26.105371  L 32.794938 26.105371  z " style="fill: #ebebeb"/>
   </g>
   <g id="matplotlib.axis_1">
    <g id="xtick_1">
     <g id="line2d_1">
      <path d="M 62.762298 108.526171  L 62.762298 26.105371  " clip-path="url(#p2234048fc9)" style="fill: none; stroke: #ffffff"/>
     </g>
     <g id="line2d_2">
      <path d="M 62.762298 108.526171  " style="fill: none; stroke: #333333; stroke-width: 1.5"/>
      <defs>
       <path id="m7740b17701" d="M 0 0  L 0 2.75  " style="stroke: #000000"/>
      </defs>
      <g>
       <use xlink:href="#m7740b17701" x="62.762298" y="108.526171" style="fill: #333333; stroke: #000000"/>
      </g>
     </g>
     <g id="text_1">
      <text style="fill: #4d4d4d; font: 8.8px 'Dejavu Sans'; text-anchor: middle" x="62.762298" y="120.162796" transform="rotate(-0, 62.762298, 120.162796)">100</text>
     </g>
    </g>
    <g id="xtick_2">
     <g id="line2d_3">
      <path d="M 110.980094 108.526171  L 110.980094 26.105371  " clip-path="url(#p2234048fc9)" style="fill: none; stroke: #ffffff"/>
     </g>
     <g id="line2d_4">
      <path d="M 110.980094 108.526171  " style="fill: none; stroke: #333333; stroke-width: 1.5"/>
      <g>
       <use xlink:href="#m7740b17701" x="110.980094" y="108.526171" style="fill: #333333; stroke: #000000"/>
      </g>
     </g>
     <g id="text_2">
      <text style="fill: #4d4d4d; font: 8.8px 'Dejavu Sans'; text-anchor: middle" x="110.980094" y="120.162796" transform="rotate(-0, 110.980094, 120.162796)">200</text>
     </g>
    </g>
    <g id="xtick_3">
     <g id="line2d_5">
      <path d="M 159.197891 108.526171  L 159.197891 26.105371  " clip-path="url(#p2234048fc9)" style="fill: none; stroke: #ffffff"/>
     </g>
     <g id="line2d_6">
      <path d="M 159.197891 108.526171  " style="fill: none; stroke: #333333; stroke-width: 1.5"/>
      <g>
       <use xlink:href="#m7740b17701" x="159.197891" y="108.526171" style="fill: #333333; stroke: #000000"/>
      </g>
     </g>
     <g id="text_3">
      <text style="fill: #4d4d4d; font: 8.8px 'Dejavu Sans'; text-anchor: middle" x="159.197891" y="120.162796" transform="rotate(-0, 159.197891, 120.162796)">300</text>
     </g>
    </g>
    <g id="xtick_4">
     <g id="line2d_7">
      <path d="M 38.6534 108.526171  L 38.6534 26.105371  " clip-path="url(#p2234048fc9)" style="fill: none; stroke: #ffffff; stroke-width: 0.5"/>
     </g>
    </g>
    <g id="xtick_5">
     <g id="line2d_8">
      <path d="M 86.871196 108.526171  L 86.871196 26.105371  " clip-path="url(#p2234048fc9)" style="fill: none; stroke: #ffffff; stroke-width: 0.5"/>
     </g>
    </g>
    <g id="xtick_6">
     <g id="line2d_9">
      <path d="M 135.088992 108.526171  L 135.088992 26.105371  " clip-path="url(#p2234048fc9)" style="fill: none; stroke: #ffffff; stroke-width: 0.5"/>
     </g>
    </g>
    <g id="text_4">
     <text style="font: 11px 'Dejavu Sans'; text-anchor: middle" x="105.424937" y="134.751202" transform="rotate(-0, 105.424937, 134.751202)">hp</text>
    </g>
   </g>
   <g id="matplotlib.axis_2">
    <g id="ytick_1">
     <g id="line2d_10">
      <path d="M 32.794938 95.449692  L 182.896938 95.449692  " clip-path="url(#p2234048fc9)" style="fill: none; stroke: #ffffff"/>
     </g>
     <g id="line2d_11">
      <path d="M 32.794938 95.449692  " style="fill: none; stroke: #333333; stroke-width: 1.5"/>
      <defs>
       <path id="m22a441170d" d="M 0 0  L -2.75 0  " style="stroke: #000000"/>
      </defs>
      <g>
       <use xlink:href="#m22a441170d" x="32.794938" y="95.449692" style="fill: #333333; stroke: #000000"/>
      </g>
     </g>
     <g id="text_5">
      <text style="fill: #4d4d4d; font: 8.8px 'Dejavu Sans'; text-anchor: end" x="27.844938" y="97.877942" transform="rotate(-0, 27.844938, 97.877942)">2</text>
     </g>
    </g>
    <g id="ytick_2">
     <g id="line2d_12">
      <path d="M 32.794938 76.291421  L 182.896938 76.291421  " clip-path="url(#p2234048fc9)" style="fill: none; stroke: #ffffff"/>
     </g>
     <g id="line2d_13">
      <path d="M 32.794938 76.291421  " style="fill: none; stroke: #333333; stroke-width: 1.5"/>
      <g>
       <use xlink:href="#m22a441170d" x="32.794938" y="76.291421" style="fill: #333333; stroke: #000000"/>
      </g>
     </g>
     <g id="text_6">
      <text style="fill: #4d4d4d; font: 8.8px 'Dejavu Sans'; text-anchor: end" x="27.844938" y="78.719671" transform="rotate(-0, 27.844938, 78.719671)">3</text>
     </g>
    </g>
    <g id="ytick_3">
     <g id="line2d_14">
      <path d="M 32.794938 57.133149  L 182.896938 57.133149  " clip-path="url(#p2234048fc9)" style="fill: none; stroke: #ffffff"/>
     </g>
     <g id="line2d_15">
      <path d="M 32.794938 57.133149  " style="fill: none; stroke: #333333; stroke-width: 1.5"/>
      <g>
       <use xlink:href="#m22a441170d" x="32.794938" y="57.133149" style="fill: #333333; stroke: #000000"/>
      </g>
     </g>
     <g id="text_7">
      <text style="fill: #4d4d4d; font: 8.8px 'Dejavu Sans'; text-anchor: end" x="27.844938" y="59.561399" transform="rotate(-0, 27.844938, 59.561399)">4</text>
     </g>
    </g>
    <g id="ytick_4">
     <g id="line2d_16">
      <path d="M 32.794938 37.974878  L 182.896938 37.974878  " clip-path="url(#p2234048fc9)" style="fill: none; stroke: #ffffff"/>
     </g>
     <g id="line2d_17">
      <path d="M 32.794938 37.974878  " style="fill: none; stroke: #333333; stroke-width: 1.5"/>
      <g>
       <use xlink:href="#m22a441170d" x="32.794938" y="37.974878" style="fill: #333333; stroke: #000000"/>
      </g>
     </g>
     <g id="text_8">
      <text style="fill: #4d4d4d; font: 8.8px 'Dejavu Sans'; text-anchor: end" x="27.844938" y="40.403128" transform="rotate(-0, 27.844938, 40.403128)">5</text>
     </g>
    </g>
    <g id="ytick_5">
     <g id="line2d_18">
      <path d="M 32.794938 105.028828  L 182.896938 105.028828  " clip-path="url(#p2234048fc9)" style="fill: none; stroke: #ffffff; stroke-width: 0.5"/>
     </g>
    </g>
    <g id="ytick_6">
     <g id="line2d_19">
      <path d="M 32.794938 85.870557  L 182.896938 85.870557  " clip-path="url(#p2234048fc9)" style="fill: none; stroke: #ffffff; stroke-width: 0.5"/>
     </g>
    </g>
    <g id="ytick_7">
     <g id="line2d_20">
      <path d="M 32.794938 66.712285  L 182.896938 66.712285  " clip-path="url(#p2234048fc9)" style="fill: none; stroke: #ffffff; stroke-width: 0.5"/>
     </g>
    </g>
    <g id="ytick_8">
     <g id="line2d_21">
      <path d="M 32.794938 47.554014  L 182.896938 47.554014  " clip-path="url(#p2234048fc9)" style="fill: none; stroke: #ffffff; stroke-width: 0.5"/>
     </g>
    </g>
    <g id="ytick_9">
     <g id="line2d_22">
      <path d="M 32.794938 28.395742  L 182.896938 28.395742  " clip-path="url(#p2234048fc9)" style="fill: none; stroke: #ffffff; stroke-width: 0.5"/>
     </g>
    </g>
    <g id="text_9">
     <text style="font: 11px 'Dejavu Sans'; text-anchor: middle" x="15.558281" y="66.780571" transform="rotate(-90, 15.558281, 66.780571)">wt</text>
    </g>
   </g>
   <g id="PathCollection_1">
    <path d="M 67.584078 85.344018  C 68.054138 85.344018 68.505009 85.157261 68.837392 84.824878  C 69.169774 84.492495 69.356531 84.041624 69.356531 83.571564  C 69.356531 83.101504 69.169774 82.650633 68.837392 82.31825  C 68.505009 81.985867 68.054138 81.79911 67.584078 81.79911  C 67.114017 81.79911 66.663146 81.985867 66.330763 82.31825  C 65.998381 82.650633 65.811624 83.101504 65.811624 83.571564  C 65.811624 84.041624 65.998381 84.492495 66.330763 84.824878  C 66.663146 85.157261 67.114017 85.344018 67.584078 85.344018  z " clip-path="url(#p2234048fc9)" style="stroke: #000000; stroke-width: 0.886227"/>
    <path d="M 67.584078 80.458659  C 68.054138 80.458659 68.505009 80.271902 68.837392 79.939519  C 69.169774 79.607136 69.356531 79.156265 69.356531 78.686205  C 69.356531 78.216145 69.169774 77.765274 68.837392 77.432891  C 68.505009 77.100508 68.054138 76.913751 67.584078 76.913751  C 67.114017 76.913751 66.663146 77.100508 66.330763 77.432891  C 65.998381 77.765274 65.811624 78.216145 65.811624 78.686205  C 65.811624 79.156265 65.998381 79.607136 66.330763 79.939519  C 66.663146 80.271902 67.114017 80.458659 67.584078 80.458659  z " clip-path="url(#p2234048fc9)" style="stroke: #000000; stroke-width: 0.886227"/>
    <path d="M 59.387052 91.091499  C 59.857112 91.091499 60.307984 90.904743 60.640366 90.57236  C 60.972749 90.239977 61.159506 89.789106 61.159506 89.319046  C 61.159506 88.848985 60.972749 88.398114 60.640366 88.065731  C 60.307984 87.733349 59.857112 87.546592 59.387052 87.546592  C 58.916992 87.546592 58.466121 87.733349 58.133738 88.065731  C 57.801355 88.398114 57.614598 88.848985 57.614598 89.319046  C 57.614598 89.789106 57.801355 90.239977 58.133738 90.57236  C 58.466121 90.904743 58.916992 91.091499 59.387052 91.091499  z " clip-path="url(#p2234048fc9)" style="stroke: #000000; stroke-width: 0.886227"/>
    <path d="M 67.584078 73.944846  C 68.054138 73.944846 68.505009 73.758089 68.837392 73.425707  C 69.169774 73.093324 69.356531 72.642453 69.356531 72.172393  C 69.356531 71.702332 69.169774 71.251461 68.837392 70.919078  C 68.505009 70.586696 68.054138 70.399939 67.584078 70.399939  C 67.114017 70.399939 66.663146 70.586696 66.330763 70.919078  C 65.998381 71.251461 65.811624 71.702332 65.811624 72.172393  C 65.811624 72.642453 65.998381 73.093324 66.330763 73.425707  C 66.663146 73.758089 67.114017 73.944846 67.584078 73.944846  z " clip-path="url(#p2234048fc9)" style="stroke: #000000; stroke-width: 0.886227"/>
    <path d="M 98.925645 69.634235  C 99.395705 69.634235 99.846577 69.447478 100.178959 69.115096  C 100.511342 68.782713 100.698099 68.331842 100.698099 67.861781  C 100.698099 67.391721 100.511342 66.94085 100.178959 66.608467  C 99.846577 66.276085 99.395705 66.089328 98.925645 66.089328  C 98.455585 66.089328 98.004714 66.276085 97.672331 66.608467  C 97.339948 66.94085 97.153191 67.391721 97.153191 67.861781  C 97.153191 68.331842 97.339948 68.782713 97.672331 69.115096  C 98.004714 69.447478 98.455585 69.634235 98.925645 69.634235  z " clip-path="url(#p2234048fc9)" style="stroke: #000000; stroke-width: 0.886227"/>
    <path d="M 65.173188 69.25107  C 65.643248 69.25107 66.094119 69.064313 66.426502 68.73193  C 66.758885 68.399547 66.945642 67.948676 66.945642 67.478616  C 66.945642 67.008556 66.758885 66.557685 66.426502 66.225302  C 66.094119 65.892919 65.643248 65.706162 65.173188 65.706162  C 64.703127 65.706162 64.252256 65.892919 63.919874 66.225302  C 63.587491 66.557685 63.400734 67.008556 63.400734 67.478616  C 63.400734 67.948676 63.587491 68.399547 63.919874 68.73193  C 64.252256 69.064313 64.703127 69.25107 65.173188 69.25107  z " clip-path="url(#p2234048fc9)" style="stroke: #000000; stroke-width: 0.886227"/>
    <path d="M 132.678103 67.14366  C 133.148163 67.14366 133.599034 66.956903 133.931417 66.62452  C 134.2638 66.292138 134.450556 65.841266 134.450556 65.371206  C 134.450556 64.901146 134.2638 64.450275 133.931417 64.117892  C 133.599034 63.785509 133.148163 63.598752 132.678103 63.598752  C 132.208042 63.598752 131.757171 63.785509 131.424788 64.117892  C 131.092406 64.450275 130.905649 64.901146 130.905649 65.371206  C 130.905649 65.841266 131.092406 66.292138 131.424788 66.62452  C 131.757171 66.956903 132.208042 67.14366 132.678103 67.14366  z " clip-path="url(#p2234048fc9)" style="stroke: #000000; stroke-width: 0.886227"/>
    <path d="M 44.439535 74.423803  C 44.909596 74.423803 45.360467 74.237046 45.692849 73.904663  C 46.025232 73.572281 46.211989 73.12141 46.211989 72.651349  C 46.211989 72.181289 46.025232 71.730418 45.692849 71.398035  C 45.360467 71.065652 44.909596 70.878895 44.439535 70.878895  C 43.969475 70.878895 43.518604 71.065652 43.186221 71.398035  C 42.853838 71.730418 42.667081 72.181289 42.667081 72.651349  C 42.667081 73.12141 42.853838 73.572281 43.186221 73.904663  C 43.518604 74.237046 43.969475 74.423803 44.439535 74.423803  z " clip-path="url(#p2234048fc9)" style="stroke: #000000; stroke-width: 0.886227"/>
    <path d="M 60.351408 75.190134  C 60.821468 75.190134 61.272339 75.003377 61.604722 74.670994  C 61.937105 74.338612 62.123862 73.88774 62.123862 73.41768  C 62.123862 72.94762 61.937105 72.496749 61.604722 72.164366  C 61.272339 71.831983 60.821468 71.645226 60.351408 71.645226  C 59.881348 71.645226 59.430477 71.831983 59.098094 72.164366  C 58.765711 72.496749 58.578954 72.94762 58.578954 73.41768  C 58.578954 73.88774 58.765711 74.338612 59.098094 74.670994  C 59.430477 75.003377 59.881348 75.190134 60.351408 75.190134  z " clip-path="url(#p2234048fc9)" style="stroke: #000000; stroke-width: 0.886227"/>
    <path d="M 73.852391 69.634235  C 74.322451 69.634235 74.773322 69.447478 75.105705 69.115096  C 75.438088 68.782713 75.624845 68.331842 75.624845 67.861781  C 75.624845 67.391721 75.438088 66.94085 75.105705 66.608467  C 74.773322 66.276085 74.322451 66.089328 73.852391 66.089328  C 73.382331 66.089328 72.93146 66.276085 72.599077 66.608467  C 72.266694 66.94085 72.079937 67.391721 72.079937 67.861781  C 72.079937 68.331842 72.266694 68.782713 72.599077 69.115096  C 72.93146 69.447478 73.382331 69.634235 73.852391 69.634235  z " clip-path="url(#p2234048fc9)" style="stroke: #000000; stroke-width: 0.886227"/>
    <path d="M 73.852391 69.634235  C 74.322451 69.634235 74.773322 69.447478 75.105705 69.115096  C 75.438088 68.782713 75.624845 68.331842 75.624845 67.861781  C 75.624845 67.391721 75.438088 66.94085 75.105705 66.608467  C 74.773322 66.276085 74.322451 66.089328 73.852391 66.089328  C 73.382331 66.089328 72.93146 66.276085 72.599077 66.608467  C 72.266694 66.94085 72.079937 67.391721 72.079937 67.861781  C 72.079937 68.331842 72.266694 68.782713 72.599077 69.115096  C 72.93146 69.447478 73.382331 69.634235 73.852391 69.634235  z " clip-path="url(#p2234048fc9)" style="stroke: #000000; stroke-width: 0.886227"/>
    <path d="M 101.336535 57.564524  C 101.806595 57.564524 102.257466 57.377767 102.589849 57.045385  C 102.922232 56.713002 103.108989 56.262131 103.108989 55.79207  C 103.108989 55.32201 102.922232 54.871139 102.589849 54.538756  C 102.257466 54.206373 101.806595 54.019617 101.336535 54.019617  C 100.866475 54.019617 100.415604 54.206373 100.083221 54.538756  C 99.750838 54.871139 99.564081 55.32201 99.564081 55.79207  C 99.564081 56.262131 99.750838 56.713002 100.083221 57.045385  C 100.415604 57.377767 100.866475 57.564524 101.336535 57.564524  z " clip-path="url(#p2234048fc9)" style="stroke: #000000; stroke-width: 0.886227"/>
    <path d="M 101.336535 64.078337  C 101.806595 64.078337 102.257466 63.89158 102.589849 63.559197  C 102.922232 63.226814 103.108989 62.775943 103.108989 62.305883  C 103.108989 61.835822 102.922232 61.384951 102.589849 61.052569  C 102.257466 60.720186 101.806595 60.533429 101.336535 60.533429  C 100.866475 60.533429 100.415604 60.720186 100.083221 61.052569  C 99.750838 61.384951 99.564081 61.835822 99.564081 62.305883  C 99.564081 62.775943 99.750838 63.226814 100.083221 63.559197  C 100.415604 63.89158 100.866475 64.078337 101.336535 64.078337  z " clip-path="url(#p2234048fc9)" style="stroke: #000000; stroke-width: 0.886227"/>
    <path d="M 101.336535 63.120423  C 101.806595 63.120423 102.257466 62.933666 102.589849 62.601283  C 102.922232 62.2689 103.108989 61.818029 103.108989 61.347969  C 103.108989 60.877909 102.922232 60.427038 102.589849 60.094655  C 102.257466 59.762272 101.806595 59.575515 101.336535 59.575515  C 100.866475 59.575515 100.415604 59.762272 100.083221 60.094655  C 99.750838 60.427038 99.564081 60.877909 99.564081 61.347969  C 99.564081 61.818029 99.750838 62.2689 100.083221 62.601283  C 100.415604 62.933666 100.866475 63.120423 101.336535 63.120423  z " clip-path="url(#p2234048fc9)" style="stroke: #000000; stroke-width: 0.886227"/>
    <path d="M 113.390984 34.957764  C 113.861044 34.957764 114.311915 34.771007 114.644298 34.438624  C 114.976681 34.106241 115.163438 33.65537 115.163438 33.18531  C 115.163438 32.71525 114.976681 32.264379 114.644298 31.931996  C 114.311915 31.599613 113.861044 31.412856 113.390984 31.412856  C 112.920924 31.412856 112.470053 31.599613 112.13767 31.931996  C 111.805287 32.264379 111.61853 32.71525 111.61853 33.18531  C 111.61853 33.65537 111.805287 34.106241 112.13767 34.438624  C 112.470053 34.771007 112.920924 34.957764 113.390984 34.957764  z " clip-path="url(#p2234048fc9)" style="stroke: #000000; stroke-width: 0.886227"/>
    <path d="M 118.212764 31.624225  C 118.682824 31.624225 119.133695 31.437468 119.466078 31.105085  C 119.798461 30.772702 119.985218 30.321831 119.985218 29.851771  C 119.985218 29.38171 119.798461 28.930839 119.466078 28.598457  C 119.133695 28.266074 118.682824 28.079317 118.212764 28.079317  C 117.742703 28.079317 117.291832 28.266074 116.95945 28.598457  C 116.627067 28.930839 116.44031 29.38171 116.44031 29.851771  C 116.44031 30.321831 116.627067 30.772702 116.95945 31.105085  C 117.291832 31.437468 117.742703 31.624225 118.212764 31.624225  z " clip-path="url(#p2234048fc9)" style="stroke: #000000; stroke-width: 0.886227"/>
    <path d="M 125.445433 33.137728  C 125.915493 33.137728 126.366365 32.950971 126.698747 32.618588  C 127.03113 32.286206 127.217887 31.835334 127.217887 31.365274  C 127.217887 30.895214 127.03113 30.444343 126.698747 30.11196  C 126.366365 29.779577 125.915493 29.59282 125.445433 29.59282  C 124.975373 29.59282 124.524502 29.779577 124.192119 30.11196  C 123.859736 30.444343 123.672979 30.895214 123.672979 31.365274  C 123.672979 31.835334 123.859736 32.286206 124.192119 32.618588  C 124.524502 32.950971 124.975373 33.137728 125.445433 33.137728  z " clip-path="url(#p2234048fc9)" style="stroke: #000000; stroke-width: 0.886227"/>
    <path d="M 46.368247 93.390492  C 46.838307 93.390492 47.289179 93.203735 47.621561 92.871352  C 47.953944 92.53897 48.140701 92.088098 48.140701 91.618038  C 48.140701 91.147978 47.953944 90.697107 47.621561 90.364724  C 47.289179 90.032341 46.838307 89.845584 46.368247 89.845584  C 45.898187 89.845584 45.447316 90.032341 45.114933 90.364724  C 44.78255 90.697107 44.595793 91.147978 44.595793 91.618038  C 44.595793 92.088098 44.78255 92.53897 45.114933 92.871352  C 45.447316 93.203735 45.898187 93.390492 46.368247 93.390492  z " clip-path="url(#p2234048fc9)" style="stroke: #000000; stroke-width: 0.886227"/>
    <path d="M 39.617756 104.598081  C 40.087816 104.598081 40.538687 104.411324 40.87107 104.078941  C 41.203453 103.746558 41.39021 103.295687 41.39021 102.825627  C 41.39021 102.355567 41.203453 101.904696 40.87107 101.572313  C 40.538687 101.23993 40.087816 101.053173 39.617756 101.053173  C 39.147695 101.053173 38.696824 101.23993 38.364442 101.572313  C 38.032059 101.904696 37.845302 102.355567 37.845302 102.825627  C 37.845302 103.295687 38.032059 103.746558 38.364442 104.078941  C 38.696824 104.411324 39.147695 104.598081 39.617756 104.598081  z " clip-path="url(#p2234048fc9)" style="stroke: #000000; stroke-width: 0.886227"/>
    <path d="M 45.886069 100.383261  C 46.356129 100.383261 46.807001 100.196504 47.139383 99.864121  C 47.471766 99.531739 47.658523 99.080868 47.658523 98.610807  C 47.658523 98.140747 47.471766 97.689876 47.139383 97.357493  C 46.807001 97.02511 46.356129 96.838353 45.886069 96.838353  C 45.416009 96.838353 44.965138 97.02511 44.632755 97.357493  C 44.300372 97.689876 44.113615 98.140747 44.113615 98.610807  C 44.113615 99.080868 44.300372 99.531739 44.632755 99.864121  C 44.965138 100.196504 45.416009 100.383261 45.886069 100.383261  z " clip-path="url(#p2234048fc9)" style="stroke: #000000; stroke-width: 0.886227"/>
    <path d="M 61.315764 88.31355  C 61.785824 88.31355 62.236695 88.126793 62.569078 87.79441  C 62.901461 87.462028 63.088218 87.011156 63.088218 86.541096  C 63.088218 86.071036 62.901461 85.620165 62.569078 85.287782  C 62.236695 84.955399 61.785824 84.768642 61.315764 84.768642  C 60.845704 84.768642 60.394833 84.955399 60.06245 85.287782  C 59.730067 85.620165 59.54331 86.071036 59.54331 86.541096  C 59.54331 87.011156 59.730067 87.462028 60.06245 87.79441  C 60.394833 88.126793 60.845704 88.31355 61.315764 88.31355  z " clip-path="url(#p2234048fc9)" style="stroke: #000000; stroke-width: 0.886227"/>
    <path d="M 86.871196 68.101574  C 87.341256 68.101574 87.792127 67.914817 88.12451 67.582434  C 88.456893 67.250051 88.64365 66.79918 88.64365 66.32912  C 88.64365 65.859059 88.456893 65.408188 88.12451 65.075806  C 87.792127 64.743423 87.341256 64.556666 86.871196 64.556666  C 86.401136 64.556666 85.950265 64.743423 85.617882 65.075806  C 85.285499 65.408188 85.098742 65.859059 85.098742 66.32912  C 85.098742 66.79918 85.285499 67.250051 85.617882 67.582434  C 85.950265 67.914817 86.401136 68.101574 86.871196 68.101574  z " clip-path="url(#p2234048fc9)" style="stroke: #000000; stroke-width: 0.886227"/>
    <path d="M 86.871196 69.730027  C 87.341256 69.730027 87.792127 69.54327 88.12451 69.210887  C 88.456893 68.878504 88.64365 68.427633 88.64365 67.957573  C 88.64365 67.487513 88.456893 67.036641 88.12451 66.704259  C 87.792127 66.371876 87.341256 66.185119 86.871196 66.185119  C 86.401136 66.185119 85.950265 66.371876 85.617882 66.704259  C 85.285499 67.036641 85.098742 67.487513 85.098742 67.957573  C 85.098742 68.427633 85.285499 68.878504 85.617882 69.210887  C 85.950265 69.54327 86.401136 69.730027 86.871196 69.730027  z " clip-path="url(#p2234048fc9)" style="stroke: #000000; stroke-width: 0.886227"/>
    <path d="M 132.678103 61.970927  C 133.148163 61.970927 133.599034 61.78417 133.931417 61.451787  C 134.2638 61.119404 134.450556 60.668533 134.450556 60.198473  C 134.450556 59.728413 134.2638 59.277541 133.931417 58.945159  C 133.599034 58.612776 133.148163 58.426019 132.678103 58.426019  C 132.208042 58.426019 131.757171 58.612776 131.424788 58.945159  C 131.092406 59.277541 130.905649 59.728413 130.905649 60.198473  C 130.905649 60.668533 131.092406 61.119404 131.424788 61.451787  C 131.757171 61.78417 132.208042 61.970927 132.678103 61.970927  z " clip-path="url(#p2234048fc9)" style="stroke: #000000; stroke-width: 0.886227"/>
    <path d="M 98.925645 61.875135  C 99.395705 61.875135 99.846577 61.688378 100.178959 61.355996  C 100.511342 61.023613 100.698099 60.572742 100.698099 60.102681  C 100.698099 59.632621 100.511342 59.18175 100.178959 58.849367  C 99.846577 58.516985 99.395705 58.330228 98.925645 58.330228  C 98.455585 58.330228 98.004714 58.516985 97.672331 58.849367  C 97.339948 59.18175 97.153191 59.632621 97.153191 60.102681  C 97.153191 60.572742 97.339948 61.023613 97.672331 61.355996  C 98.004714 61.688378 98.455585 61.875135 98.925645 61.875135  z " clip-path="url(#p2234048fc9)" style="stroke: #000000; stroke-width: 0.886227"/>
    <path d="M 46.368247 98.467434  C 46.838307 98.467434 47.289179 98.280677 47.621561 97.948294  C 47.953944 97.615911 48.140701 97.16504 48.140701 96.69498  C 48.140701 96.22492 47.953944 95.774049 47.621561 95.441666  C 47.289179 95.109283 46.838307 94.922526 46.368247 94.922526  C 45.898187 94.922526 45.447316 95.109283 45.114933 95.441666  C 44.78255 95.774049 44.595793 96.22492 44.595793 96.69498  C 44.595793 97.16504 44.78255 97.615911 45.114933 97.948294  C 45.447316 98.280677 45.898187 98.467434 46.368247 98.467434  z " clip-path="url(#p2234048fc9)" style="stroke: #000000; stroke-width: 0.886227"/>
    <path d="M 58.422696 94.539988  C 58.892757 94.539988 59.343628 94.353231 59.67601 94.020849  C 60.008393 93.688466 60.19515 93.237595 60.19515 92.767534  C 60.19515 92.297474 60.008393 91.846603 59.67601 91.51422  C 59.343628 91.181838 58.892757 90.995081 58.422696 90.995081  C 57.952636 90.995081 57.501765 91.181838 57.169382 91.51422  C 56.836999 91.846603 56.650242 92.297474 56.650242 92.767534  C 56.650242 93.237595 56.836999 93.688466 57.169382 94.020849  C 57.501765 94.353231 57.952636 94.539988 58.422696 94.539988  z " clip-path="url(#p2234048fc9)" style="stroke: #000000; stroke-width: 0.886227"/>
    <path d="M 69.030611 106.552225  C 69.500672 106.552225 69.951543 106.365468 70.283926 106.033085  C 70.616308 105.700702 70.803065 105.249831 70.803065 104.779771  C 70.803065 104.30971 70.616308 103.858839 70.283926 103.526457  C 69.951543 103.194074 69.500672 103.007317 69.030611 103.007317  C 68.560551 103.007317 68.10968 103.194074 67.777297 103.526457  C 67.444915 103.858839 67.258158 104.30971 67.258158 104.779771  C 67.258158 105.249831 67.444915 105.700702 67.777297 106.033085  C 68.10968 106.365468 68.560551 106.552225 69.030611 106.552225  z " clip-path="url(#p2234048fc9)" style="stroke: #000000; stroke-width: 0.886227"/>
    <path d="M 141.839484 74.806969  C 142.309544 74.806969 142.760415 74.620212 143.092798 74.287829  C 143.425181 73.955446 143.611938 73.504575 143.611938 73.034515  C 143.611938 72.564455 143.425181 72.113583 143.092798 71.781201  C 142.760415 71.448818 142.309544 71.262061 141.839484 71.262061  C 141.369424 71.262061 140.918553 71.448818 140.58617 71.781201  C 140.253787 72.113583 140.06703 72.564455 140.06703 73.034515  C 140.06703 73.504575 140.253787 73.955446 140.58617 74.287829  C 140.918553 74.620212 141.369424 74.806969 141.839484 74.806969  z " clip-path="url(#p2234048fc9)" style="stroke: #000000; stroke-width: 0.886227"/>
    <path d="M 98.925645 82.470277  C 99.395705 82.470277 99.846577 82.28352 100.178959 81.951138  C 100.511342 81.618755 100.698099 81.167884 100.698099 80.697823  C 100.698099 80.227763 100.511342 79.776892 100.178959 79.444509  C 99.846577 79.112126 99.395705 78.92537 98.925645 78.92537  C 98.455585 78.92537 98.004714 79.112126 97.672331 79.444509  C 97.339948 79.776892 97.153191 80.227763 97.153191 80.697823  C 97.153191 81.167884 97.339948 81.618755 97.672331 81.951138  C 98.004714 82.28352 98.455585 82.470277 98.925645 82.470277  z " clip-path="url(#p2234048fc9)" style="stroke: #000000; stroke-width: 0.886227"/>
    <path d="M 176.074119 67.14366  C 176.54418 67.14366 176.995051 66.956903 177.327433 66.62452  C 177.659816 66.292138 177.846573 65.841266 177.846573 65.371206  C 177.846573 64.901146 177.659816 64.450275 177.327433 64.117892  C 176.995051 63.785509 176.54418 63.598752 176.074119 63.598752  C 175.604059 63.598752 175.153188 63.785509 174.820805 64.117892  C 174.488422 64.450275 174.301665 64.901146 174.301665 65.371206  C 174.301665 65.841266 174.488422 66.292138 174.820805 66.62452  C 175.153188 66.956903 175.604059 67.14366 176.074119 67.14366  z " clip-path="url(#p2234048fc9)" style="stroke: #000000; stroke-width: 0.886227"/>
    <path d="M 67.1019 82.278695  C 67.57196 82.278695 68.022831 82.091938 68.355214 81.759555  C 68.687597 81.427172 68.874353 80.976301 68.874353 80.506241  C 68.874353 80.03618 68.687597 79.585309 68.355214 79.252927  C 68.022831 78.920544 67.57196 78.733787 67.1019 78.733787  C 66.631839 78.733787 66.180968 78.920544 65.848585 79.252927  C 65.516203 79.585309 65.329446 80.03618 65.329446 80.506241  C 65.329446 80.976301 65.516203 81.427172 65.848585 81.759555  C 66.180968 82.091938 66.631839 82.278695 67.1019 82.278695  z " clip-path="url(#p2234048fc9)" style="stroke: #000000; stroke-width: 0.886227"/>
   </g>
  </g>
  <g id="text_10">
   <text style="font: 13.2px 'Dejavu Sans'; text-anchor: middle" x="105.424937" y="17.229938" transform="rotate(-0, 105.424937, 17.229938)">Plot 2</text>
  </g>
 </g>
 <defs>
  <clipPath id="p2234048fc9">
   <rect x="32.794938" y="26.105371" width="150.102" height="82.4208"/>
  </clipPath>
 </defs>
</g>
  </g>
</svg>
